# xmcd
#
# Track frame offsets:
#	150
#	19604
#	33442
#	46135
#	59673
#	75075
#	89343
#	104627
#	116919
#	129505
#	142048
#	155857
#	170781
#	183683
#	196657
#	210756
#	224362
#	237970
#	251323
#	264217
#
# Disc length: 3708 seconds
# Revision: 1
# Processed by: cddbd v1.5.2PL0 Copyright (c) Steve Scherf et al.
# Submitted via: dBpowerAMP V12.0
#
DISCID=180e7a14
DTITLE=Duke Ellington - The Duke - New World A Comin' CD 2
DYEAR=1999
DGENRE=Jazz
TTITLE0=Unbooted Character
TTITLE1=Rockabye River
TTITLE2=Suddenly It Jumped
TTITLE3=Transblucency
TTITLE4=Just Squeeze Me
TTITLE5=A Gathering In A Clearing
TTITLE6=You Don't Love Me No More
TTITLE7=Pretty Woman
TTITLE8=Hey! Baby
TTITLE9=Indiana
TTITLE10=Blue Is The Light
TTITLE11=Lover Man
TTITLE12=Just You, Just Me
TTITLE13=Beale Street Blues
TTITLE14=My Honey's Lovin' Arms
TTITLE15=Memphis Blues
TTITLE16=I Don't Stand A Ghost of a Chance With You
TTITLE17=St. Louis Blues
TTITLE18=Swamp Fire
TTITLE19=Royal Garden Blues
EXTD=
EXTT0=
EXTT1=
EXTT2=
EXTT3=
EXTT4=
EXTT5=
EXTT6=
EXTT7=
EXTT8=
EXTT9=
EXTT10=
EXTT11=
EXTT12=
EXTT13=
EXTT14=
EXTT15=
EXTT16=
EXTT17=
EXTT18=
EXTT19=
PLAYORDER=
